<?xml version="1.0" encoding="UTF-8"?><svg id="Layer_2" xmlns="http://www.w3.org/2000/svg" viewBox="0 0 231.42 164.18"><g id="Layer_1-2"><path d="M117.46,9.9c17.37,0,31.5,14.13,31.5,31.5s-14.13,31.5-31.5,31.5-31.5-14.13-31.5-31.5,14.13-31.5,31.5-31.5M117.46,0c-22.86,0-41.4,18.53-41.4,41.4s18.53,41.4,41.4,41.4,41.4-18.53,41.4-41.4S140.32,0,117.46,0h0Z"/><path d="M30.14,123.93c-1.17-2.57-3.47-3.86-6.89-3.86-3.97,0-6.64,1.29-8.01,3.86-.75,1.47-1.12,3.65-1.12,6.54v32.04H0v-53.14h13.53v7.77c1.73-2.77,3.35-4.74,4.88-5.91,2.7-2.08,6.2-3.13,10.5-3.13,4.07,0,7.36.9,9.87,2.69,2.02,1.66,3.55,3.79,4.59,6.4,1.82-3.13,4.09-5.42,6.79-6.89,2.86-1.47,6.06-2.2,9.57-2.2,2.34,0,4.66.46,6.94,1.37,2.28.91,4.35,2.51,6.2,4.79,1.5,1.86,2.51,4.14,3.03,6.84.32,1.79.49,4.41.49,7.86l-.1,33.56h-14.26v-33.9c0-2.02-.33-3.68-.98-4.98-1.24-2.47-3.52-3.71-6.84-3.71-3.84,0-6.5,1.6-7.96,4.79-.75,1.69-1.12,3.73-1.12,6.11v31.7h-14.02v-31.7c0-3.16-.33-5.45-.98-6.89Z"/><path d="M91.19,115.04c3.68-4.69,10-7.03,18.95-7.03,5.83,0,11.01,1.16,15.53,3.47,4.53,2.31,6.79,6.68,6.79,13.09v24.42c0,1.69.03,3.74.1,6.15.1,1.82.37,3.06.83,3.71.46.65,1.14,1.19,2.05,1.61v2.05h-15.14c-.42-1.07-.72-2.08-.88-3.03-.16-.94-.29-2.02-.39-3.22-1.92,2.08-4.14,3.86-6.64,5.32-3,1.73-6.38,2.59-10.16,2.59-4.82,0-8.8-1.38-11.94-4.13-3.14-2.75-4.71-6.65-4.71-11.7,0-6.55,2.52-11.28,7.57-14.21,2.77-1.6,6.84-2.74,12.21-3.42l4.74-.59c2.57-.32,4.41-.73,5.52-1.22,1.99-.85,2.98-2.16,2.98-3.96,0-2.18-.76-3.69-2.27-4.52-1.51-.83-3.74-1.25-6.67-1.25-3.29,0-5.62.81-6.98,2.44-.98,1.21-1.63,2.83-1.95,4.88h-13.43c.29-4.66,1.6-8.48,3.91-11.48ZM101.55,152.46c1.3,1.07,2.9,1.61,4.79,1.61,3,0,5.75-.88,8.28-2.64,2.52-1.76,3.83-4.97,3.93-9.62v-5.18c-.88.55-1.77,1-2.66,1.34-.9.34-2.12.66-3.69.95l-3.13.59c-2.93.52-5.03,1.16-6.3,1.91-2.15,1.27-3.22,3.24-3.22,5.91,0,2.38.67,4.09,2,5.13Z"/><path d="M171.59,122.13c-5.6,0-9.36,1.82-11.28,5.47-1.07,2.05-1.61,5.21-1.61,9.48v25.45h-14.02v-53.24h13.29v9.28c2.15-3.55,4.02-5.97,5.62-7.28,2.6-2.18,5.99-3.27,10.16-3.27.26,0,.48,0,.66.02.18.02.58.04,1.2.07v14.26c-.88-.1-1.66-.16-2.34-.2-.68-.03-1.24-.05-1.66-.05Z"/><path d="M217.89,155c-.13.16-.46.65-.98,1.47-.52.81-1.14,1.53-1.86,2.15-2.18,1.95-4.29,3.29-6.33,4.01-2.04.72-4.42,1.07-7.16,1.07-7.88,0-13.19-2.83-15.92-8.5-1.53-3.13-2.3-7.73-2.3-13.82v-32.09h14.26v32.09c0,3.03.36,5.31,1.07,6.84,1.27,2.7,3.76,4.05,7.47,4.05,4.75,0,8.01-1.92,9.77-5.76.91-2.08,1.37-4.84,1.37-8.25v-28.96h14.12v53.24h-13.53v-7.52Z"/></g></svg>